<?xml version="1.0" encoding="utf-8"?>
<!-- Generator: Adobe Illustrator 21.0.1, SVG Export Plug-In . SVG Version: 6.00 Build 0)  -->
<svg version="1.1" id="Layer_1" xmlns="http://www.w3.org/2000/svg" xmlns:xlink="http://www.w3.org/1999/xlink" x="0px" y="0px"
	 viewBox="0 0 27.6 27.6" style="enable-background:new 0 0 27.6 27.6;" xml:space="preserve">
<style type="text/css">
	.st0{fill:#EDEDED;}
	.st1{fill:none;}
	.st2{fill:#32333F;}
</style>
<title>Untitled-2</title>
<circle class="st0" cx="13.8" cy="13.8" r="13.8"/>
<path class="st1" d="M1.1,2.4h24v24h-24V2.4z"/>
<path class="st2" d="M8.6,13.4c1.2,2.4,3.1,4.3,5.5,5.5l1.8-1.8c0.2-0.2,0.5-0.3,0.8-0.2c1,0.3,2,0.5,3,0.5c0.5,0,0.8,0.4,0.8,0.8
	v2.9c0,0.5-0.4,0.8-0.8,0.8c-7.8,0-14.1-6.3-14.1-14.1l0,0C5.6,7.3,6,7,6.4,7h2.9c0.5,0,0.8,0.4,0.8,0.8c0,1,0.2,2,0.5,3
	c0.1,0.3,0,0.6-0.2,0.8L8.6,13.4z"/>
</svg>
